<?xml version="1.0" encoding="iso-8859-1"?>
<!-- Generator: Adobe Illustrator 19.0.0, SVG Export Plug-In . SVG Version: 6.00 Build 0)  -->
<svg version="1.1" id="Layer_1" xmlns="http://www.w3.org/2000/svg" xmlns:xlink="http://www.w3.org/1999/xlink" x="0px" y="0px"
	 viewBox="0 0 512 512" style="enable-background:new 0 0 512 512;" xml:space="preserve">
<path style="fill:#D8D8D8;" d="M256,264.828c-12.359,0-23.834-1.766-34.428-4.414l16.772,233.931
	C239.228,504.055,246.29,512,256,512c9.71,0,16.772-7.945,17.655-17.655l16.772-233.931
	C279.835,263.062,268.359,264.828,256,264.828"/>
<path style="fill:#DD342E;" d="M388.414,132.414C388.414,59.145,329.269,0,256,0S123.586,59.145,123.586,132.414
	S182.731,264.828,256,264.828S388.414,205.683,388.414,132.414"/>
<path style="fill:#F86363;" d="M158.897,141.241c-5.297,0-8.828-3.531-8.828-8.828c0-58.262,47.669-105.931,105.931-105.931
	c5.297,0,8.828,3.531,8.828,8.828s-3.531,8.828-8.828,8.828c-48.552,0-88.276,39.724-88.276,88.276
	C167.724,137.71,164.193,141.241,158.897,141.241"/>
<g>
</g>
<g>
</g>
<g>
</g>
<g>
</g>
<g>
</g>
<g>
</g>
<g>
</g>
<g>
</g>
<g>
</g>
<g>
</g>
<g>
</g>
<g>
</g>
<g>
</g>
<g>
</g>
<g>
</g>
</svg>
