<?xml version="1.0" encoding="iso-8859-1"?>
<!-- Generator: Adobe Illustrator 18.0.0, SVG Export Plug-In . SVG Version: 6.00 Build 0)  -->
<!DOCTYPE svg PUBLIC "-//W3C//DTD SVG 1.1//EN" "http://www.w3.org/Graphics/SVG/1.1/DTD/svg11.dtd">
<svg version="1.1" id="Capa_1" xmlns="http://www.w3.org/2000/svg" xmlns:xlink="http://www.w3.org/1999/xlink" x="0px" y="0px"
	 viewBox="0 0 58 58" style="enable-background:new 0 0 58 58;" xml:space="preserve">
<g>
	<polygon style="fill:#48A0DC;" points="52,20.413 52,29.308 29,41.99 6,29.308 6,20.413 0,25.999 0,58 58,58 58,25.999 	"/>
	<path style="fill:#48A0DC;" d="M39.741,9l-8.88-8.267c-1.049-0.976-2.674-0.976-3.723,0L18.259,9H39.741z"/>
	<path style="fill:#556080;" d="M0.091,26.05l57.511,31.711c-0.033,0.128-0.029,0.111-0.062,0.239H0.129C0.058,58,0,57.942,0,57.871
		l0-31.767C0,26.057,0.05,26.027,0.091,26.05z"/>
	<path style="fill:#7383BF;" d="M57.909,26.05L29,41.99l28.602,15.771c-0.033,0.127-0.029,0.112-0.062,0.239h0.331
		C57.942,58,58,57.942,58,57.871V26.103C58,26.057,57.95,26.027,57.909,26.05z"/>
	<g>
		<polygon style="fill:#F2ECBF;" points="29,41.99 52,29.308 52,9 6,9 6,29.308 		"/>
	</g>
	<path style="fill:#BAB395;" d="M32,17h-6c-0.553,0-1-0.447-1-1s0.447-1,1-1h6c0.553,0,1,0.447,1,1S32.553,17,32,17z"/>
	<path style="fill:#BAB395;" d="M41,32h-7c-0.553,0-1-0.447-1-1s0.447-1,1-1h7c0.553,0,1,0.447,1,1S41.553,32,41,32z"/>
	<path style="fill:#BAB395;" d="M21,24h-5c-0.553,0-1-0.447-1-1s0.447-1,1-1h5c0.553,0,1,0.447,1,1S21.553,24,21,24z"/>
	<path style="fill:#BAB395;" d="M37,24h-8c-0.553,0-1-0.447-1-1s0.447-1,1-1h8c0.553,0,1,0.447,1,1S37.553,24,37,24z"/>
	<path style="fill:#BAB395;" d="M25,24c-0.26,0-0.521-0.11-0.71-0.29C24.109,23.519,24,23.259,24,23c0-0.271,0.109-0.521,0.29-0.71
		c0.37-0.37,1.05-0.37,1.42,0C25.89,22.479,26,22.729,26,23c0,0.26-0.11,0.52-0.29,0.71C25.52,23.889,25.26,24,25,24z"/>
	<path style="fill:#BAB395;" d="M30,32H20c-0.553,0-1-0.447-1-1s0.447-1,1-1h10c0.553,0,1,0.447,1,1S30.553,32,30,32z"/>
	<path style="fill:#BAB395;" d="M16,32c-0.26,0-0.521-0.101-0.71-0.29C15.109,31.519,15,31.259,15,31c0-0.271,0.1-0.521,0.29-0.71
		c0.38-0.37,1.05-0.37,1.42,0C16.899,30.49,17,30.74,17,31s-0.11,0.52-0.29,0.71C16.52,31.889,16.26,32,16,32z"/>
	<path style="fill:#BAB395;" d="M41,24c-0.26,0-0.521-0.11-0.71-0.29C40.109,23.519,40,23.259,40,23c0-0.271,0.109-0.521,0.29-0.71
		c0.37-0.37,1.04-0.37,1.42,0C41.89,22.479,42,22.74,42,23s-0.11,0.52-0.29,0.71C41.52,23.889,41.26,24,41,24z"/>
</g>
<g>
</g>
<g>
</g>
<g>
</g>
<g>
</g>
<g>
</g>
<g>
</g>
<g>
</g>
<g>
</g>
<g>
</g>
<g>
</g>
<g>
</g>
<g>
</g>
<g>
</g>
<g>
</g>
<g>
</g>
</svg>
